<svg width="80" height="131" viewBox="0 0 80 131" fill="none" xmlns="http://www.w3.org/2000/svg">
<g clip-path="url(#clip0)">
<path d="M8.67529 124.974C8.626 124.331 8.52742 123.64 8.52742 122.998C8.23167 108.525 7.78805 94.1007 10.1047 79.7262C11.4849 71.1806 13.8509 62.882 18.1392 55.3243C19.5687 52.7557 21.2939 50.3352 23.167 48.063C24.4978 46.4329 26.1245 44.704 27.9482 43.8643C31.0043 42.4811 32.3845 40.0113 33.8632 37.3439C39.7782 26.526 47.3198 17.0419 56.9809 9.28657C61.1214 5.977 65.6069 3.11199 70.6346 1.33371C72.7049 0.592759 74.9723 0.296379 77.1904 0.148189C78.7677 -9.59072e-07 79.162 0.543363 80 2.22285C79.5071 2.37104 79.0142 2.71682 78.5705 2.66742C75.9088 2.46983 73.4935 3.35897 71.0782 4.4457C66.2477 6.66855 61.91 9.68175 57.9174 13.1889C49.39 20.6478 42.6371 29.5392 37.1657 39.4679C36.9686 39.8631 36.8207 40.2583 36.5742 40.8017C37.1164 40.9498 37.5108 41.1474 37.9051 41.1968C44.7566 41.839 51.411 48.2606 52.4461 57.0532C53.3333 64.8578 50.9673 71.7734 45.9889 77.7998C44.3623 79.7756 42.4399 81.3563 40.0739 82.3443C35.7363 84.1719 31.4479 82.9864 28.6383 79.1829C27.0117 76.96 26.1245 74.4408 25.6315 71.7734C24.4486 65.5988 25.3851 59.6218 26.9624 53.6942C27.2089 52.7557 27.4553 51.8171 27.7018 50.8292C27.7018 50.7798 27.6525 50.681 27.5046 50.187C26.8145 50.9774 26.1245 51.6195 25.5823 52.3605C22.1319 56.8062 19.8644 61.894 18.09 67.1795C15.3789 75.2311 13.9988 83.5298 13.358 91.9766C12.6679 100.769 12.2243 109.512 11.6821 118.305C11.6328 118.898 11.6821 119.491 11.6821 120.577C16.6605 115.094 19.7166 108.574 25.533 104.474C25.6808 104.375 26.0259 104.474 26.5681 104.474C26.4202 105.215 26.4202 105.906 26.1738 106.499C25.3851 108.228 24.6457 109.957 23.6106 111.538C20.0123 117.12 16.3648 122.652 12.7172 128.234C12.4707 128.629 12.175 128.975 11.8792 129.321C9.66112 131.889 7.39372 131.79 5.52064 129.024C3.79544 126.505 2.16882 123.936 0.542206 121.368C0.295749 120.972 0 120.577 0 120.182C0 119.589 0.0492914 118.75 0.443623 118.503C0.936537 118.157 1.87307 118.058 2.36599 118.305C3.10536 118.7 3.74615 119.441 4.28835 120.133C5.61922 121.812 6.85151 123.59 8.13309 125.319C8.28096 125.072 8.47813 125.023 8.67529 124.974ZM48.7492 60.7579C48.6014 56.0652 47.3691 51.9159 43.968 48.7051C41.7006 46.5811 39.0881 45.4943 35.9335 45.6425C34.6026 45.6919 33.8139 46.1859 33.321 47.4702C31.5958 51.8171 30.2156 56.2628 29.4763 60.8567C28.8355 64.9566 28.6876 69.0566 29.9199 73.1071C31.9901 79.9732 37.1164 81.3563 42.1935 76.3179C46.4818 72.0204 48.4042 66.6361 48.7492 60.7579Z" fill="black"/>
</g>
<defs>
<clipPath id="clip0">
<rect width="80" height="131" fill="white"/>
</clipPath>
</defs>
</svg>
